<svg xmlns="http://www.w3.org/2000/svg" width="24" height="24" viewBox="0 0 24 24">
  <g id="CO2" transform="translate(12893 9179)" style="isolation: isolate">
    <path id="Path_38183" data-name="Path 38183" d="M0,0H24V24H0Z" transform="translate(-12893 -9179)" fill="none"/>
    <g id="project" transform="translate(-12946 -9179)">
      <path id="Path_38184" data-name="Path 38184" d="M65.375,0A9.386,9.386,0,0,0,56,9.375a9.278,9.278,0,0,0,1,4.213,9.463,9.463,0,0,0,2.377,2.99V19.5a4.505,4.505,0,0,0,4.5,4.5h3a4.505,4.505,0,0,0,4.5-4.5V16.578a9.464,9.464,0,0,0,2.377-2.99,9.279,9.279,0,0,0,1-4.213A9.386,9.386,0,0,0,65.375,0Zm1.5,22.5h-3a3,3,0,0,1-3-3V16.875h9V19.5A3,3,0,0,1,66.875,22.5Zm3.6-7.125h-4.35v-2.72c.279-.043.622-.1.984-.176a4.726,4.726,0,0,0,2.509-1.009,4.725,4.725,0,0,0,1.009-2.509c.179-.862.263-1.62.267-1.652a.75.75,0,0,0-.828-.828c-.032,0-.79.088-1.652.267a4.726,4.726,0,0,0-2.509,1.009,2.51,2.51,0,0,0-.53.852,2.51,2.51,0,0,0-.53-.852,4.725,4.725,0,0,0-2.509-1.009c-.862-.179-1.62-.263-1.652-.267a.75.75,0,0,0-.828.828c0,.032.088.79.267,1.652a4.726,4.726,0,0,0,1.009,2.509,4.725,4.725,0,0,0,2.509,1.009c.362.075.7.133.984.176v2.72h-4.35a7.875,7.875,0,1,1,10.2,0ZM66.966,8.818a3.959,3.959,0,0,1,1.742-.6c.191-.04.379-.075.553-.1-.03.174-.065.361-.1.553a3.96,3.96,0,0,1-.6,1.742,3.96,3.96,0,0,1-1.742.6c-.192.04-.38.075-.555.105a6.285,6.285,0,0,1,.706-2.295ZM64.383,10.56c.04.192.075.38.105.555a6.287,6.287,0,0,1-2.295-.706,3.96,3.96,0,0,1-.6-1.742c-.04-.191-.075-.379-.1-.553.174.03.361.065.553.1a3.96,3.96,0,0,1,1.742.6A3.96,3.96,0,0,1,64.383,10.56Z" transform="translate(0)" fill="#333"/>
    </g>
  </g>
</svg>
