<svg xmlns="http://www.w3.org/2000/svg" width="24" height="24" viewBox="0 0 24 24">
  <g id="Comfort" transform="translate(0 0.001)" style="isolation: isolate">
    <g id="Layer_1" data-name="Layer 1" transform="translate(0 -0.001)">
      <g id="Comfort-2" data-name="Comfort">
        <g id="Path_38176" data-name="Path 38176">
          <path id="Path_38235" data-name="Path 38235" d="M9.574,7.787A1.777,1.777,0,0,1,7.787,9.574h0a1.726,1.726,0,0,1-1.266-.511A1.777,1.777,0,0,1,6,7.787,1.8,1.8,0,0,1,7.787,6a1.746,1.746,0,0,1,1.277.531A1.767,1.767,0,0,1,9.574,7.787Z" transform="translate(0.128 0.128)" fill="none"/>
          <path id="Path_38236" data-name="Path 38236" d="M17.574,7.787A1.787,1.787,0,1,1,15.787,6h0a1.767,1.767,0,0,1,1.277.521A1.808,1.808,0,0,1,17.574,7.787Z" transform="translate(0.298 0.128)" fill="none"/>
          <path id="Path_38237" data-name="Path 38237" d="M17.463,14.5a5.7,5.7,0,0,1-2.1,2.972,5.933,5.933,0,0,1-6.985,0,5.668,5.668,0,0,1-2.1-2.992.327.327,0,0,1,0-.092.776.776,0,0,1,.562-.929h.184a.786.786,0,0,1,.715.551,4.33,4.33,0,0,0,8.272,0,.735.735,0,0,1,.388-.449.817.817,0,0,1,.337-.082.684.684,0,0,1,.245,0,.756.756,0,0,1,.49,1.021Z" transform="translate(0.133 0.287)" fill="none"/>
          <path id="Path_38238" data-name="Path 38238" d="M22.386,5.974a11.908,11.908,0,0,0-4.361-4.361A11.622,11.622,0,0,0,12,0,11.612,11.612,0,0,0,5.974,1.614,11.908,11.908,0,0,0,1.614,5.974,11.693,11.693,0,0,0,0,12a11.693,11.693,0,0,0,1.614,6.025A11.979,11.979,0,0,0,12,24h.092a11.663,11.663,0,0,0,5.933-1.614,11.908,11.908,0,0,0,4.361-4.361A11.693,11.693,0,0,0,24,12a11.693,11.693,0,0,0-1.614-6.025Zm-.756,10.09-.082.2A10.478,10.478,0,0,1,12,22.468a10.213,10.213,0,0,1-4.085-.837,10.212,10.212,0,0,1-5.576-5.566A10.458,10.458,0,0,1,16.064,2.369,10.213,10.213,0,0,1,21.63,7.935,10.315,10.315,0,0,1,21.63,16.064Z" transform="translate(0 0.001)" fill="none"/>
        </g>
        <g id="smile">
          <g id="Group_4291" data-name="Group 4291">
            <g id="Path_38177" data-name="Path 38177">
              <path id="Path_38239" data-name="Path 38239" d="M22.386,5.974a11.908,11.908,0,0,0-4.361-4.361A11.622,11.622,0,0,0,12,0,11.612,11.612,0,0,0,5.974,1.614,11.908,11.908,0,0,0,1.614,5.974,11.693,11.693,0,0,0,0,12a11.693,11.693,0,0,0,1.614,6.025A11.979,11.979,0,0,0,12,24h.092a11.663,11.663,0,0,0,5.933-1.614,11.908,11.908,0,0,0,4.361-4.361A11.693,11.693,0,0,0,24,12a11.693,11.693,0,0,0-1.614-6.025Zm-.756,10.09-.082.2A10.478,10.478,0,0,1,12,22.468a10.213,10.213,0,0,1-4.085-.837,10.212,10.212,0,0,1-5.576-5.566A10.458,10.458,0,0,1,16.064,2.369,10.213,10.213,0,0,1,21.63,7.935,10.315,10.315,0,0,1,21.63,16.064Z" transform="translate(0 0.001)" fill="#333"/>
            </g>
            <g id="Path_38178" data-name="Path 38178" transform="translate(6.383 13.747)">
              <path id="Path_38240" data-name="Path 38240" d="M17.463,14.5a5.7,5.7,0,0,1-2.1,2.972,5.933,5.933,0,0,1-6.985,0,5.668,5.668,0,0,1-2.1-2.992.327.327,0,0,1,0-.092.776.776,0,0,1,.562-.929h.184a.786.786,0,0,1,.715.551,4.33,4.33,0,0,0,8.272,0,.735.735,0,0,1,.388-.449.817.817,0,0,1,.337-.082.684.684,0,0,1,.245,0,.756.756,0,0,1,.49,1.021Z" transform="translate(-6.25 -13.46)" fill="#333"/>
            </g>
            <g id="Path_38179" data-name="Path 38179" transform="translate(6.128 6.128)">
              <path id="Path_38241" data-name="Path 38241" d="M9.574,7.787A1.777,1.777,0,0,1,7.787,9.574h0a1.726,1.726,0,0,1-1.266-.511A1.777,1.777,0,0,1,6,7.787,1.8,1.8,0,0,1,7.787,6a1.746,1.746,0,0,1,1.277.531A1.767,1.767,0,0,1,9.574,7.787Z" transform="translate(-6 -6)" fill="#333"/>
            </g>
            <g id="Path_38180" data-name="Path 38180" transform="translate(14.298 6.128)">
              <path id="Path_38242" data-name="Path 38242" d="M17.574,7.787A1.787,1.787,0,1,1,15.787,6h0a1.767,1.767,0,0,1,1.277.521A1.808,1.808,0,0,1,17.574,7.787Z" transform="translate(-14 -6)" fill="#333"/>
            </g>
          </g>
        </g>
      </g>
    </g>
  </g>
</svg>
