<svg xmlns="http://www.w3.org/2000/svg" width="24" height="24" viewBox="0 0 24 24">
  <g id="Department" transform="translate(0 0.003)" style="isolation: isolate">
    <g id="Layer_1" data-name="Layer 1" transform="translate(0 -0.003)">
      <g id="Department-2" data-name="Department">
        <g id="Path_38192" data-name="Path 38192">
          <path id="Path_38243" data-name="Path 38243" d="M20.431,18.478l-.254-.122.193-.2a3.79,3.79,0,0,0-1.892-6.322h-.132V11.7a6.363,6.363,0,0,0-3.529-4.9l-.244-.122.193-.2a3.831,3.831,0,1,0-5.512-.041l.193.2L9.2,6.759a6.363,6.363,0,0,0-3.529,4.9v.132H5.542a3.8,3.8,0,0,0-1.892,6.322l.193.2-.254.122A6.423,6.423,0,0,0,0,24H1.505a4.871,4.871,0,0,1,9.742,0h1.505a4.873,4.873,0,0,1,9.742,0H24a6.423,6.423,0,0,0-3.569-5.519ZM12,1.5a2.34,2.34,0,0,1,1.627.671A2.3,2.3,0,1,1,12,1.5ZM6.376,17.828a2.307,2.307,0,1,1,2.3-2.3,2.308,2.308,0,0,1-2.3,2.3Zm8.451.65A6.416,6.416,0,0,0,12.2,20.9l-.173.285-.173-.285a6.416,6.416,0,0,0-2.705-2.419l-.244-.122.193-.2a3.79,3.79,0,0,0-.112-5.367,3.906,3.906,0,0,0-1.658-.935H7.149v-.193a4.872,4.872,0,0,1,9.6,0v.193h-.173a3.79,3.79,0,0,0-1.769,6.3l.193.2Zm2.8-.65a2.307,2.307,0,0,1,0-4.6,2.248,2.248,0,0,1,1.627.681,2.3,2.3,0,0,1-1.627,3.923Z" transform="translate(0 0.003)" fill="none"/>
        </g>
        <g id="group">
          <g id="Group_4292" data-name="Group 4292">
            <g id="Path_38193" data-name="Path 38193">
              <path id="Path_38244" data-name="Path 38244" d="M20.431,18.478l-.254-.122.193-.2a3.79,3.79,0,0,0-1.892-6.322h-.132V11.7a6.363,6.363,0,0,0-3.529-4.9l-.244-.122.193-.2a3.831,3.831,0,1,0-5.512-.041l.193.2L9.2,6.759a6.363,6.363,0,0,0-3.529,4.9v.132H5.542a3.8,3.8,0,0,0-1.892,6.322l.193.2-.254.122A6.423,6.423,0,0,0,0,24H1.505a4.871,4.871,0,0,1,9.742,0h1.505a4.873,4.873,0,0,1,9.742,0H24a6.423,6.423,0,0,0-3.569-5.519ZM12,1.5a2.34,2.34,0,0,1,1.627.671A2.3,2.3,0,1,1,12,1.5ZM6.376,17.828a2.307,2.307,0,1,1,2.3-2.3,2.308,2.308,0,0,1-2.3,2.3Zm8.451.65A6.416,6.416,0,0,0,12.2,20.9l-.173.285-.173-.285a6.416,6.416,0,0,0-2.705-2.419l-.244-.122.193-.2a3.79,3.79,0,0,0-.112-5.367,3.906,3.906,0,0,0-1.658-.935H7.149v-.193a4.872,4.872,0,0,1,9.6,0v.193h-.173a3.79,3.79,0,0,0-1.769,6.3l.193.2Zm2.8-.65a2.307,2.307,0,0,1,0-4.6,2.248,2.248,0,0,1,1.627.681,2.3,2.3,0,0,1-1.627,3.923Z" transform="translate(0 0.003)" fill="#333"/>
            </g>
          </g>
        </g>
      </g>
    </g>
  </g>
</svg>
