<svg xmlns="http://www.w3.org/2000/svg" width="24" height="24" viewBox="0 0 24 24">
  <g id="Desk" transform="translate(12893 9341)">
    <g id="chair-2" transform="translate(-12893 -9341)">
      <g id="Group_3771" data-name="Group 3771">
        <path id="Path_4352" data-name="Path 4352" d="M23.951,7.419H23.9a5.185,5.185,0,0,0-3.326.849,4.218,4.218,0,0,0-.552.493L20.61,0H3.39l.586,8.76a4.218,4.218,0,0,0-.552-.493A5.245,5.245,0,0,0,.049,7.419H0V8.984H.049a3.824,3.824,0,0,1,2.442.54,5.982,5.982,0,0,1,1.776,3.567l.038.564v4.424h6.913v2.614a4.394,4.394,0,0,0-3.275,2.632l1.443.606A2.835,2.835,0,0,1,11.217,22.3V24h1.565V22.3a2.835,2.835,0,0,1,1.831,1.632l1.443-.606a4.394,4.394,0,0,0-3.275-2.632V18.079H19.7V13.655l.038-.564a5.982,5.982,0,0,1,1.776-3.567,3.823,3.823,0,0,1,2.442-.54H24V7.419h-.049Zm-5.821,9.095H5.869v-2.1H18.131v2.1Zm.051-3.668H5.819L5.064,1.565H18.936Z" fill="#333"/>
      </g>
    </g>
    <rect id="Rectangle_2136" data-name="Rectangle 2136" width="24" height="24" transform="translate(-12893 -9341)" fill="none"/>
  </g>
</svg>
