<svg xmlns="http://www.w3.org/2000/svg" width="24" height="24" viewBox="0 0 24 24">
  <g id="Footfall" transform="translate(12873 9070)" style="isolation: isolate">
    <g id="footprints" transform="translate(-12873 -9070)">
      <path id="Path_38231" data-name="Path 38231" d="M299.4,63.1c-4.252-1.139-8.333,6.793-7.013,12.354a.744.744,0,0,0,.531.547l5.645,1.513a.744.744,0,0,0,.734-.208c3.949-4.183,4.319-13.076.1-14.205Zm-.9,12.857-4.757-1.275a10.818,10.818,0,0,1,.3-4.542c1.381-5.154,5.528-7.932,6.669-3.289a11.534,11.534,0,0,1-2.212,9.106Z" transform="translate(-278.686 -60.063)" fill="#333"/>
      <path id="Path_38232" data-name="Path 38232" d="M281.435,376.247,276.4,374.9a.744.744,0,0,0-.911.526l-.482,1.8a3.349,3.349,0,0,0,6.469,1.734l.482-1.8A.744.744,0,0,0,281.435,376.247Zm-1.393,2.323a1.86,1.86,0,0,1-3.594-.963l.289-1.078,3.594.963Z" transform="translate(-262.245 -357.438)" fill="#333"/>
      <path id="Path_38233" data-name="Path 38233" d="M12.924,12.458A12.89,12.89,0,0,0,10,1.664C7.315-1.135,4.089-.323,3.15,3.5A12.889,12.889,0,0,0,6.014,14.31a.744.744,0,0,0,.734.208l5.645-1.513a.744.744,0,0,0,.531-.547Zm-1.361-.772L6.807,12.961A10.817,10.817,0,0,1,4.8,8.878C3.42,3.747,5.6-.771,8.926,2.695A11.525,11.525,0,0,1,11.564,11.687Z" transform="translate(-2.887 0)" fill="#333"/>
      <path id="Path_38234" data-name="Path 38234" d="M95.416,312.3a.744.744,0,0,0-.911-.526l-5.032,1.348a.744.744,0,0,0-.526.911l.482,1.8A3.349,3.349,0,1,0,95.9,314.1Zm-2.271,4.461a1.862,1.862,0,0,1-2.279-1.315l-.289-1.078,3.594-.963.289,1.078A1.859,1.859,0,0,1,93.145,316.765Z" transform="translate(-84.92 -297.254)" fill="#333"/>
    </g>
    <rect id="Rectangle_2144" data-name="Rectangle 2144" width="24" height="23.729" transform="translate(-12873 -9070)" fill="none"/>
  </g>
</svg>
