<svg xmlns="http://www.w3.org/2000/svg" width="24" height="24" viewBox="0 0 24 24">
  <g id="Humidity" transform="translate(12831 8987)" style="isolation: isolate">
    <g id="Layer_2" data-name="Layer 2" transform="translate(-12828 -8987)">
      <g id="Layer_1" data-name="Layer 1" transform="translate(0 0)">
        <g id="Humidity-2" data-name="Humidity">
          <g id="Path_38173" data-name="Path 38173">
            <path id="Path_38245" data-name="Path 38245" d="M13.24,18.4a.814.814,0,0,1-.577.237h0a.817.817,0,0,1-.577-1.4,3.316,3.316,0,0,0,0-4.665.824.824,0,0,1,1.153-1.164,4.953,4.953,0,0,1,0,6.992Z" transform="translate(0.353 0.335)" fill="none"/>
            <path id="Path_38246" data-name="Path 38246" d="M10.175.247a.844.844,0,0,0-1.195,0C8.063,1.195,0,9.691,0,14.726a9.588,9.588,0,0,0,19.165,0C19.165,9.68,11.091,1.195,10.175.247ZM15.19,20.328a7.888,7.888,0,0,1-5.6,2.327h0a7.93,7.93,0,0,1-7.93-7.93c0-3.882,6.478-11.132,7.775-12.553l.154-.113.144.165c1.3,1.37,7.775,8.63,7.775,12.5A7.9,7.9,0,0,1,15.19,20.328Z" transform="translate(0 0)" fill="none"/>
          </g>
          <g id="drop">
            <g id="Path_38174" data-name="Path 38174">
              <path id="Path_38247" data-name="Path 38247" d="M10.175.247a.844.844,0,0,0-1.195,0C8.063,1.195,0,9.691,0,14.726a9.588,9.588,0,0,0,19.165,0C19.165,9.68,11.091,1.195,10.175.247ZM15.19,20.328a7.888,7.888,0,0,1-5.6,2.327h0a7.93,7.93,0,0,1-7.93-7.93c0-3.882,6.478-11.132,7.775-12.553l.154-.113.144.165c1.3,1.37,7.775,8.63,7.775,12.5A7.9,7.9,0,0,1,15.19,20.328Z" transform="translate(0 0)" fill="#333"/>
            </g>
            <g id="Path_38175" data-name="Path 38175" transform="translate(12.195 11.56)">
              <path id="Path_38248" data-name="Path 38248" d="M13.24,18.4a.814.814,0,0,1-.577.237h0a.817.817,0,0,1-.577-1.4,3.316,3.316,0,0,0,0-4.665.824.824,0,0,1,1.153-1.164,4.953,4.953,0,0,1,0,6.992Z" transform="translate(-11.842 -11.225)" fill="#333"/>
            </g>
          </g>
        </g>
      </g>
    </g>
    <rect id="Rectangle_2146" data-name="Rectangle 2146" width="24" height="24" transform="translate(-12831 -8987)" fill="none"/>
  </g>
</svg>
