<svg xmlns="http://www.w3.org/2000/svg" width="24" height="24" viewBox="0 0 24 24">
  <g id="People" transform="translate(12974 9071)" style="isolation: isolate">
    <path id="Path_38197" data-name="Path 38197" d="M0,0H24V24H0Z" transform="translate(-12974 -9071)" fill="none"/>
    <g id="fi-rr-user" transform="translate(-12974 -9071)">
      <path id="Path_38265" data-name="Path 38265" d="M12,12A6,6,0,1,0,6,6a6,6,0,0,0,6,6ZM12,2A4,4,0,1,1,8,6a4,4,0,0,1,4-4Z" fill="#333"/>
      <path id="Path_38266" data-name="Path 38266" d="M12,14a9.01,9.01,0,0,0-9,9,1,1,0,1,0,2,0,7,7,0,1,1,14,0,1,1,0,0,0,2,0A9.01,9.01,0,0,0,12,14Z" fill="#333"/>
    </g>
  </g>
</svg>
