<svg xmlns="http://www.w3.org/2000/svg" width="24" height="24" viewBox="0 0 24 24">
  <g id="Pressure" transform="translate(12933 9125)" style="isolation: isolate">
    <path id="Path_38189" data-name="Path 38189" d="M0,0H24V24H0Z" transform="translate(-12933 -9125)" fill="none"/>
    <g id="indicator" transform="translate(-12941 -9133)">
      <path id="Path_38190" data-name="Path 38190" d="M20,8A12,12,0,1,0,32,20,12.013,12.013,0,0,0,20,8Zm0,22A10,10,0,1,1,30,20,10.011,10.011,0,0,1,20,30Z" fill="#333"/>
      <path id="Path_38191" data-name="Path 38191" d="M27.716,26c.268-.6-.44-1.875-.794-2.2l1.889-4.4a1,1,0,1,0-1.838-.788l-1.888,4.4c-.064-.005-.128-.01-.193-.01-1.3,0-3.073,1.784-2.825,3Zm-2.825-1a1,1,0,1,1-1,1A1,1,0,0,1,24.891,25Zm-2.825,1a2.934,2.934,0,0,0,2.825,3c1.3,0,3.176-1.324,2.825-3Z" transform="translate(-4.891 -5)" fill="#333"/>
    </g>
  </g>
</svg>
