<svg xmlns="http://www.w3.org/2000/svg" width="24" height="24" viewBox="0 0 24 24">
  <g id="Reservation" transform="translate(12933 9287)" style="isolation: isolate">
    <path id="Path_38149" data-name="Path 38149" d="M0,0H24V24H0Z" transform="translate(-12933 -9287)" fill="none"/>
    <g id="calendar-2" transform="translate(-12933 -9287)">
      <path id="Path_38150" data-name="Path 38150" d="M301.172,325.232a.749.749,0,0,1-.53-.22l-1.75-1.75a.75.75,0,0,1,1.061-1.061l1.181,1.18,2.723-3.141a.75.75,0,1,1,1.133.982l-3.25,3.75a.749.749,0,0,1-.54.258A.136.136,0,0,1,301.172,325.232Zm0,0" transform="translate(-284.672 -304.981)" fill="#333"/>
      <path id="Path_38151" data-name="Path 38151" d="M8.5,59.668H2.75A2.752,2.752,0,0,1,0,56.918v-11.5a2.752,2.752,0,0,1,2.75-2.75h14.5A2.752,2.752,0,0,1,20,45.418v4a.75.75,0,0,1-1.5,0v-4a1.252,1.252,0,0,0-1.25-1.25H2.75a1.252,1.252,0,0,0-1.25,1.25v11.5a1.252,1.252,0,0,0,1.25,1.25H8.5a.75.75,0,0,1,0,1.5Zm0,0" transform="translate(0 -40.668)" fill="#333"/>
      <path id="Path_38152" data-name="Path 38152" d="M19.25,129.5H.75a.75.75,0,0,1,0-1.5h18.5a.75.75,0,0,1,0,1.5Zm0,0" transform="translate(0 -122)" fill="#333"/>
      <path id="Path_38153" data-name="Path 38153" d="M86.082,5.5a.75.75,0,0,1-.75-.75v-4a.75.75,0,0,1,1.5,0v4A.75.75,0,0,1,86.082,5.5Zm0,0" transform="translate(-81.332)" fill="#333"/>
      <path id="Path_38154" data-name="Path 38154" d="M310.082,5.5a.75.75,0,0,1-.75-.75v-4a.75.75,0,0,1,1.5,0v4A.75.75,0,0,1,310.082,5.5Zm0,0" transform="translate(-294.832)" fill="#333"/>
      <path id="Path_38155" data-name="Path 38155" d="M241.168,247.668a6.5,6.5,0,1,1,6.5-6.5A6.507,6.507,0,0,1,241.168,247.668Zm0-11.5a5,5,0,1,0,5,5A5.005,5.005,0,0,0,241.168,236.168Zm0,0" transform="translate(-223.668 -223.668)" fill="#333"/>
    </g>
  </g>
</svg>
