<svg xmlns="http://www.w3.org/2000/svg" width="24" height="24" viewBox="0 0 24 24">
  <g id="TVOC" transform="translate(12933 9179)" style="isolation: isolate">
    <path id="Path_38181" data-name="Path 38181" d="M0,0H24V24H0Z" transform="translate(-12933 -9179)" fill="none"/>
    <g id="drop-leaf-table" transform="translate(-12933 -9179.001)">
      <path id="Path_38182" data-name="Path 38182" d="M23.378.623A2.119,2.119,0,0,0,21.686.009a51.173,51.173,0,0,0-7.357,1.3c-3.412.869-5.721,1.887-6.861,3.028a11.356,11.356,0,0,0-3.052,6.542,9.525,9.525,0,0,0,.233,3.611A7.321,7.321,0,0,0,5.4,16.28c-.441.478-.852.938-1.227,1.369A56.642,56.642,0,0,0,.126,22.834a.75.75,0,1,0,1.248.832A56.115,56.115,0,0,1,5.3,18.633c.313-.361.652-.742,1.013-1.136.031.032.062.065.093.1a6.866,6.866,0,0,0,3.1,1.758,9.024,9.024,0,0,0,2.374.307,10.715,10.715,0,0,0,1.237-.073,11.356,11.356,0,0,0,6.542-3.052c1.14-1.14,2.159-3.449,3.028-6.861a51.168,51.168,0,0,0,1.3-7.357A2.119,2.119,0,0,0,23.378.623ZM22.5,2.181c-.322,3.6-1.795,11.194-3.893,13.291-2.762,2.762-8.346,3.851-11.137,1.061q-.064-.064-.126-.131a41.239,41.239,0,0,1,7.678-6.389.75.75,0,1,0-.79-1.275,42.337,42.337,0,0,0-7.749,6.4C5.035,12.158,6.173,7.751,8.529,5.4c2.1-2.1,9.692-3.57,13.291-3.893l.06,0a.624.624,0,0,1,.618.68Z" transform="translate(0 0)" fill="#333"/>
    </g>
  </g>
</svg>
