<svg xmlns="http://www.w3.org/2000/svg" width="24" height="24" viewBox="0 0 24 24">
  <g id="Utilization" transform="translate(0.004)" style="isolation: isolate">
    <path id="Path_38267" data-name="Path 38267" d="M12,6a1,1,0,0,0-1,1v5.018a1,1,0,0,0,.294.709L14.3,15.741a1,1,0,1,0,1.417-1.419L13,11.606V7A1,1,0,0,0,12,6Z" transform="translate(0.025 0.021)" fill="#333"/>
    <path id="Path_38268" data-name="Path 38268" d="M23.866,10.168A12.023,12.023,0,0,0,3.586,3.427V1a1,1,0,1,0-2,0V5.018a2.006,2.006,0,0,0,2,2.007H7.6a1,1,0,0,0,0-2.007H4.838A10.029,10.029,0,1,1,2,12.924.985.985,0,0,0,1,12.043a1.01,1.01,0,0,0-1,1.1,12.028,12.028,0,1,0,23.862-2.98Z" fill="#333"/>
  </g>
</svg>
