<svg xmlns="http://www.w3.org/2000/svg" width="24" height="24" viewBox="0 0 24 24">
  <g id="Work_Orders" data-name="Work Orders" transform="translate(13017 9257)">
    <g id="Layer_2" data-name="Layer 2" transform="translate(-13015 -9257)">
      <g id="Layer_1" data-name="Layer 1" transform="translate(0 0)">
        <g id="paper_3_add" data-name="paper 3 add">
          <path id="Path_38269" data-name="Path 38269" d="M15.717,11.15H5.1a.85.85,0,1,0,0,1.7H15.717a.85.85,0,0,0,0-1.7Zm-3.186,4.779H5.1a.85.85,0,1,0,0,1.7h7.434a.85.85,0,0,0,0-1.7Zm3.186-4.779H5.1a.85.85,0,1,0,0,1.7H15.717a.85.85,0,0,0,0-1.7Zm-3.186,4.779H5.1a.85.85,0,1,0,0,1.7h7.434a.85.85,0,0,0,0-1.7Zm0,0H5.1a.85.85,0,1,0,0,1.7h7.434a.85.85,0,0,0,0-1.7Zm3.186-4.779H5.1a.85.85,0,1,0,0,1.7H15.717a.85.85,0,0,0,0-1.7Zm0,0H5.1a.85.85,0,1,0,0,1.7H15.717a.85.85,0,0,0,0-1.7Zm-3.186,4.779H5.1a.85.85,0,1,0,0,1.7h7.434a.85.85,0,0,0,0-1.7Zm0,0H5.1a.85.85,0,1,0,0,1.7h7.434a.85.85,0,0,0,0-1.7Zm3.186-4.779H5.1a.85.85,0,1,0,0,1.7H15.717a.85.85,0,0,0,0-1.7Zm0,0H5.1a.85.85,0,1,0,0,1.7H15.717a.85.85,0,0,0,0-1.7Zm-3.186,4.779H5.1a.85.85,0,1,0,0,1.7h7.434a.85.85,0,0,0,0-1.7ZM18.372,1.593H16.343a.722.722,0,0,1-.637-.372A2.432,2.432,0,0,0,13.593,0H7.221A2.421,2.421,0,0,0,5.1,1.221a.754.754,0,0,1-.648.372H2.442A2.442,2.442,0,0,0,0,4.035V21.557A2.442,2.442,0,0,0,2.442,24H20a.85.85,0,0,0,.818-.85V4.035a2.442,2.442,0,0,0-2.442-2.442Zm-11.894.85A.743.743,0,0,1,7.221,1.7h6.372a.743.743,0,0,1,.743.743V4.035a.743.743,0,0,1-.743.743H7.221a.743.743,0,0,1-.743-.743ZM19.115,21.557a.743.743,0,0,1-.743.743H2.442a.743.743,0,0,1-.743-.743V4.035a.743.743,0,0,1,.743-.743H4.035a.743.743,0,0,1,.743.743A2.442,2.442,0,0,0,7.221,6.478h6.372a2.442,2.442,0,0,0,2.442-2.442.743.743,0,0,1,.743-.743h1.593a.743.743,0,0,1,.743.743Zm-3.4-10.407H5.1a.85.85,0,1,0,0,1.7H15.717a.85.85,0,0,0,0-1.7Zm-3.186,4.779H5.1a.85.85,0,1,0,0,1.7h7.434a.85.85,0,0,0,0-1.7Zm0,0H5.1a.85.85,0,1,0,0,1.7h7.434a.85.85,0,0,0,0-1.7Zm3.186-4.779H5.1a.85.85,0,1,0,0,1.7H15.717a.85.85,0,0,0,0-1.7Zm0,0H5.1a.85.85,0,1,0,0,1.7H15.717a.85.85,0,0,0,0-1.7Zm-3.186,4.779H5.1a.85.85,0,1,0,0,1.7h7.434a.85.85,0,0,0,0-1.7Zm0,0H5.1a.85.85,0,1,0,0,1.7h7.434a.85.85,0,0,0,0-1.7Zm3.186-4.779H5.1a.85.85,0,1,0,0,1.7H15.717a.85.85,0,0,0,0-1.7Zm0,0H5.1a.85.85,0,1,0,0,1.7H15.717a.85.85,0,0,0,0-1.7Zm-3.186,4.779H5.1a.85.85,0,1,0,0,1.7h7.434a.85.85,0,0,0,0-1.7Z" transform="translate(0 0)" fill="#333"/>
        </g>
      </g>
    </g>
    <rect id="Rectangle_2147" data-name="Rectangle 2147" width="24" height="24" transform="translate(-13017 -9257)" fill="none"/>
  </g>
</svg>
