<svg xmlns="http://www.w3.org/2000/svg" width="24" height="24" viewBox="0 0 24 24">
  <g id="Zones" style="isolation: isolate">
    <g id="Layer_1" data-name="Layer 1">
      <g id="Zones-2" data-name="Zones">
        <g id="Path_38194" data-name="Path 38194">
          <path id="Path_38263" data-name="Path 38263" d="M23.095,0H.905A.905.905,0,0,0,0,.905v22.19A.905.905,0,0,0,.905,24h22.19A.905.905,0,0,0,24,23.095V.905A.905.905,0,0,0,23.095,0ZM7.21,22.19H1.81V1.851h5.4Zm14.98,0H9.02V12.905h13.22Zm0-11.095H9.02V1.81h13.22Z" fill="none"/>
        </g>
        <g id="section">
          <g id="Group_4293" data-name="Group 4293">
            <g id="Path_38195" data-name="Path 38195">
              <path id="Path_38264" data-name="Path 38264" d="M23.095,0H.905A.905.905,0,0,0,0,.905v22.19A.905.905,0,0,0,.905,24h22.19A.905.905,0,0,0,24,23.095V.905A.905.905,0,0,0,23.095,0ZM7.21,22.19H1.81V1.851h5.4Zm14.98,0H9.02V12.905h13.22Zm0-11.095H9.02V1.81h13.22Z" fill="#333"/>
            </g>
          </g>
        </g>
      </g>
    </g>
  </g>
</svg>
